# xmcd
#
# Track frame offsets:
#	150
#	13680
#	26365
#	39675
#	52560
#	65960
#	78335
#	91270
#	104470
#	116915
#	130355
#	143185
#	156240
#	169130
#	181285
#	193085
#	205485
#	218670
#	231510
#	243300
#	256905
#	269625
#	282115
#	295025
#	306795
#
# Disc length: 4258 seconds
#
# Revision: 0
# Processed by: cddbd v1.5.2PL0 Copyright (c) Steve Scherf et al.
# Submitted via: EasyCDDAExtractor 16.0.6.1
#
DISCID=7410a019
DTITLE=Homer and Jethro - Ground Hog (King Records 1947)
DYEAR=2003
DGENRE=Hillbilly Novelty
TTITLE0=Boll Weevil
TTITLE1=Rye Whiskey
TTITLE2=Always
TTITLE3=Margie
TTITLE4=Sympathy-Symphonie
TTITLE5=Night and Day
TTITLE6=Poor Little Liza, Poor Girl
TTITLE7=Cielito Lindo
TTITLE8=Don't Let Your Sweet Love Die
TTITLE9=Five Minutes More
TTITLE10=Ground Hog
TTITLE11=Bill Bailey
TTITLE12=I'm Glad I Waited for You
TTITLE13=Fly Birdie Fly
TTITLE14=I Wonder Who's Kissing Her Now
TTITLE15=Blue Tailed Fly
TTITLE16=I'll Close My Eyes
TTITLE17=Donkey Serenade
TTITLE18=It Bruised Her Somewhat
TTITLE19=I Feel Old Age Creeping On
TTITLE20=Goodbye Old Booze
TTITLE21=Don't Telephone, Don't Telegraph
TTITLE22=When It's Long-Handle Time in Tennessee
TTITLE23=Glow Worm
TTITLE24=All Night Long
EXTD=
EXTT0=
EXTT1=
EXTT2=
EXTT3=
EXTT4=
EXTT5=
EXTT6=
EXTT7=
EXTT8=
EXTT9=
EXTT10=
EXTT11=
EXTT12=
EXTT13=
EXTT14=
EXTT15=
EXTT16=
EXTT17=
EXTT18=
EXTT19=
EXTT20=
EXTT21=
EXTT22=
EXTT23=
EXTT24=
PLAYORDER=
